{"asset":{"version":"2.0","generator":"babylon.js glTF exporter for Autodesk Maya 2018.5 v20220518.1"},"scene":0,"scenes":[{"nodes":[0,2]}],"nodes":[{"children":[1],"name":"light_grp"},{"camera":0,"translation":[-9.779884E-16,0.256132126,1.12034082],"name":"cam"},{"mesh":0,"name":"Mesh"}],"cameras":[{"perspective":{"yfov":0.3651197,"zfar":10000.0,"znear":0.1},"type":"perspective","name":"cam"}],"meshes":[{"primitives":[{"attributes":{"POSITION":1,"TANGENT":2,"NORMAL":3,"TEXCOORD_0":4},"indices":0,"material":0}],"name":"Mesh"}],"accessors":[{"bufferView":0,"componentType":5123,"count":55848,"type":"SCALAR","name":"accessorIndices"},{"bufferView":1,"componentType":5126,"count":13240,"max":[0.2095739,0.4922253,0.2095739],"min":[-0.2095739,6.842E-05,-0.2095739],"type":"VEC3","name":"accessorPositions"},{"bufferView":2,"componentType":5126,"count":13240,"type":"VEC4","name":"accessorTangents"},{"bufferView":1,"byteOffset":158880,"componentType":5126,"count":13240,"type":"VEC3","name":"accessorNormals"},{"bufferView":3,"componentType":5126,"count":13240,"type":"VEC2","name":"accessorUVs"}],"bufferViews":[{"buffer":0,"byteLength":111696,"name":"bufferViewScalar"},{"buffer":0,"byteOffset":111696,"byteLength":317760,"byteStride":12,"name":"bufferViewFloatVec3"},{"buffer":0,"byteOffset":429456,"byteLength":211840,"byteStride":16,"name":"bufferViewFloatVec4"},{"buffer":0,"byteOffset":641296,"byteLength":105920,"byteStride":8,"name":"bufferViewFloatVec2"}],"buffers":[{"uri":"TaoTeiWenFangZun.bin","byteLength":747216}],"materials":[{"pbrMetallicRoughness":{"baseColorTexture":{"index":1},"metallicRoughnessTexture":{"index":2}},"normalTexture":{"index":0},"name":"phong1"}],"textures":[{"sampler":0,"source":0,"name":"bump.jpg"},{"sampler":0,"source":1,"name":"diffuse.png"},{"sampler":0,"source":2,"name":"MR_diffuse.png_spec_Spec_gloss_163.2825.png"}],"images":[{"uri":"bump.jpg"},{"uri":"diffuse.png"},{"uri":"MR_diffuse.png_spec_Spec_gloss_163.2825.png"}],"samplers":[{"magFilter":9729,"minFilter":9987}]}